<?xml version="1.0" encoding="UTF-8"?>
<svg viewBox="0 0 200 200" xmlns="http://www.w3.org/2000/svg">
  <filter height="140%" id="innerShadow" width="140%" x="-20%" y="-20%">
    <feGaussianBlur in="SourceGraphic" result="blur" stdDeviation="3"/>
    <feOffset dx="2.5" dy="2.5" in="blur"/>
  </filter>
  <g>
    <circle cx="97" cy="100" filter="url(#innerShadow)" id="shadow" r="87" style="fill:rgba(0,0,0,.1)"/>
    <circle cx="100" cy="100" id="circle" r="80" style="stroke:#fff;stroke-width:12px;fill:#20b7af"/>
  </g>
  <g>
    <line id="hourhand" style="stroke-width:3px;stroke:#fffbf9" transform="rotate(80 100 100)" x1="100" x2="100" y1="100" y2="55">
      <animateTransform attributeName="transform" attributeType="XML" dur="43200s" repeatCount="indefinite" type="rotate"/>
    </line>
    <line id="minutehand" style="stroke-width:4px;stroke:#fdfdfd" x1="100" x2="100" y1="100" y2="40">
      <animateTransform attributeName="transform" attributeType="XML" dur="3600s" repeatCount="indefinite" type="rotate"/>
    </line>
    <line id="secondhand" style="stroke-width:2px;stroke:#c1efed" x1="100" x2="100" y1="100" y2="30">
      <animateTransform attributeName="transform" attributeType="XML" dur="60s" repeatCount="indefinite" type="rotate"/>
    </line>
  </g>
  <circle cx="100" cy="100" id="center" r="3" style="fill:#128a86;stroke:#c1efed;stroke-width:2px"/>
  <line stroke="#ffffff" transform="rotate(30 100 100)" x1="100" x2="100" y1="20" y2="40"/>
  <line stroke="#ffffff" transform="rotate(60 100 100)" x1="100" x2="100" y1="20" y2="40"/>
  <line stroke="#ffffff" transform="rotate(90 100 100)" x1="100" x2="100" y1="20" y2="40"/>
  <line stroke="#ffffff" transform="rotate(120 100 100)" x1="100" x2="100" y1="20" y2="40"/>
  <line stroke="#ffffff" transform="rotate(150 100 100)" x1="100" x2="100" y1="20" y2="40"/>
  <line stroke="#ffffff" transform="rotate(180 100 100)" x1="100" x2="100" y1="20" y2="40"/>
  <line stroke="#ffffff" transform="rotate(210 100 100)" x1="100" x2="100" y1="20" y2="40"/>
  <line stroke="#ffffff" transform="rotate(240 100 100)" x1="100" x2="100" y1="20" y2="40"/>
  <line stroke="#ffffff" transform="rotate(270 100 100)" x1="100" x2="100" y1="20" y2="40"/>
  <line stroke="#ffffff" transform="rotate(300 100 100)" x1="100" x2="100" y1="20" y2="40"/>
  <line stroke="#ffffff" transform="rotate(330 100 100)" x1="100" x2="100" y1="20" y2="40"/>
  <line stroke="#ffffff" transform="rotate(360 100 100)" x1="100" x2="100" y1="20" y2="40"/>
  <script type="text/javascript">
    //<![CDATA[
    var hands = [];
    console.log(hands);
    hands.push(document.querySelector('#secondhand >*'));
    hands.push(document.querySelector('#minutehand >*'));
    hands.push(document.querySelector('#hourhand >*'));
    
    function shifter(val) {
      return [val, 100, 100].join(' ');
    }
    
    var date = new Date();
    var hoursAngle = 360 * date.getHours() / 12 + date.getMinutes() / 2;
    var minuteAngle = 360 * date.getMinutes() / 60;
    var secAngle = 360 * date.getSeconds() / 60;

    hands[0].setAttribute('from', shifter(secAngle));
    hands[0].setAttribute('to', shifter(secAngle + 360));
    hands[1].setAttribute('from', shifter(minuteAngle));
    hands[1].setAttribute('to', shifter(minuteAngle + 360));
    hands[2].setAttribute('from', shifter(hoursAngle));
    hands[2].setAttribute('to', shifter(hoursAngle + 360));
    //]]></script>
</svg>
